<svg width="42" height="42" viewBox="0 0 42 42" fill="none" xmlns="http://www.w3.org/2000/svg">
<g filter="url(#filter0_i)">
<path fill-rule="evenodd" clip-rule="evenodd" d="M21 42C32.598 42 42 32.598 42 21C42 9.40202 32.598 0 21 0C9.40202 0 0 9.40202 0 21C0 32.598 9.40202 42 21 42ZM12.6569 15.4853L15.4853 12.6569L21.1421 18.3137L18.3137 21.1422L12.6569 15.4853ZM21.1421 23.9706L18.3137 21.1422L12.6569 26.799L15.4853 29.6274L21.1421 23.9706ZM23.9706 21.1422L21.1421 18.3137L26.799 12.6569L29.6274 15.4853L23.9706 21.1422ZM23.9706 21.1422L21.1421 23.9706L26.799 29.6274L29.6274 26.799L23.9706 21.1422Z" fill="url(#paint0_radial)"/>
</g>
<defs>
<filter id="filter0_i" x="0" y="0" width="42" height="46" filterUnits="userSpaceOnUse" color-interpolation-filters="sRGB">
<feFlood flood-opacity="0" result="BackgroundImageFix"/>
<feBlend mode="normal" in="SourceGraphic" in2="BackgroundImageFix" result="shape"/>
<feColorMatrix in="SourceAlpha" type="matrix" values="0 0 0 0 0 0 0 0 0 0 0 0 0 0 0 0 0 0 127 0" result="hardAlpha"/>
<feOffset dy="4"/>
<feGaussianBlur stdDeviation="2"/>
<feComposite in2="hardAlpha" operator="arithmetic" k2="-1" k3="1"/>
<feColorMatrix type="matrix" values="0 0 0 0 0.741667 0 0 0 0 0.0401736 0 0 0 0 0.587338 0 0 0 0.97 0"/>
<feBlend mode="normal" in2="shape" result="effect1_innerShadow"/>
</filter>
<radialGradient id="paint0_radial" cx="0" cy="0" r="1" gradientUnits="userSpaceOnUse" gradientTransform="translate(21 21) rotate(90) scale(21)">
<stop stop-color="#FF00F5"/>
<stop offset="1" stop-opacity="0.88"/>
</radialGradient>
</defs>
</svg>
