<svg width="42" height="42" viewBox="0 0 42 42" fill="none" xmlns="http://www.w3.org/2000/svg">
<g filter="url(#filter0_i)">
<path fill-rule="evenodd" clip-rule="evenodd" d="M21 42C32.598 42 42 32.598 42 21C42 9.40202 32.598 0 21 0C9.40202 0 0 9.40202 0 21C0 32.598 9.40202 42 21 42ZM27 21C27 21.3407 26.9716 21.6748 26.9171 22H15.083C15.0284 21.6748 15 21.3407 15 21C15 20.6593 15.0284 20.3252 15.083 20H26.9171C26.9716 20.3252 27 20.6593 27 21ZM27 21V20H26.9171C26.441 17.1623 23.973 15 21 15C18.027 15 15.559 17.1623 15.083 20H15V21V22H15.083C15.559 24.8377 18.027 27 21 27C23.973 27 26.441 24.8377 26.9171 22H27V21Z" fill="url(#paint0_radial)"/>
</g>
<defs>
<filter id="filter0_i" x="0" y="0" width="42" height="46" filterUnits="userSpaceOnUse" color-interpolation-filters="sRGB">
<feFlood flood-opacity="0" result="BackgroundImageFix"/>
<feBlend mode="normal" in="SourceGraphic" in2="BackgroundImageFix" result="shape"/>
<feColorMatrix in="SourceAlpha" type="matrix" values="0 0 0 0 0 0 0 0 0 0 0 0 0 0 0 0 0 0 127 0" result="hardAlpha"/>
<feOffset dy="4"/>
<feGaussianBlur stdDeviation="2"/>
<feComposite in2="hardAlpha" operator="arithmetic" k2="-1" k3="1"/>
<feColorMatrix type="matrix" values="0 0 0 0 0.0849826 0 0 0 0 0.31938 0 0 0 0 0.370833 0 0 0 0.97 0"/>
<feBlend mode="normal" in2="shape" result="effect1_innerShadow"/>
</filter>
<radialGradient id="paint0_radial" cx="0" cy="0" r="1" gradientUnits="userSpaceOnUse" gradientTransform="translate(21 21) rotate(90) scale(21)">
<stop offset="0.484375" stop-color="#03D2FF"/>
<stop offset="1" stop-color="#35488C"/>
</radialGradient>
</defs>
</svg>
