<svg width="360" height="423" viewBox="0 0 360 423" fill="none" xmlns="http://www.w3.org/2000/svg">
<path fill-rule="evenodd" clip-rule="evenodd" d="M360 0H0V423H360V0ZM45 27C45 38.598 35.598 48 24 48C12.402 48 3 38.598 3 27C3 15.402 12.402 6 24 6C35.598 6 45 15.402 45 27ZM201 27C201 38.598 191.598 48 180 48C168.402 48 159 38.598 159 27C159 15.402 168.402 6 180 6C191.598 6 201 15.402 201 27ZM76 48C87.598 48 97 38.598 97 27C97 15.402 87.598 6 76 6C64.402 6 55 15.402 55 27C55 38.598 64.402 48 76 48ZM253 27C253 38.598 243.598 48 232 48C220.402 48 211 38.598 211 27C211 15.402 220.402 6 232 6C243.598 6 253 15.402 253 27ZM128 48C139.598 48 149 38.598 149 27C149 15.402 139.598 6 128 6C116.402 6 107 15.402 107 27C107 38.598 116.402 48 128 48ZM305 27C305 38.598 295.598 48 284 48C272.402 48 263 38.598 263 27C263 15.402 272.402 6 284 6C295.598 6 305 15.402 305 27ZM336 48C347.598 48 357 38.598 357 27C357 15.402 347.598 6 336 6C324.402 6 315 15.402 315 27C315 38.598 324.402 48 336 48ZM45 79C45 90.598 35.598 100 24 100C12.402 100 3 90.598 3 79C3 67.402 12.402 58 24 58C35.598 58 45 67.402 45 79ZM201 79C201 90.598 191.598 100 180 100C168.402 100 159 90.598 159 79C159 67.402 168.402 58 180 58C191.598 58 201 67.402 201 79ZM76 100C87.598 100 97 90.598 97 79C97 67.402 87.598 58 76 58C64.402 58 55 67.402 55 79C55 90.598 64.402 100 76 100ZM253 79C253 90.598 243.598 100 232 100C220.402 100 211 90.598 211 79C211 67.402 220.402 58 232 58C243.598 58 253 67.402 253 79ZM128 100C139.598 100 149 90.598 149 79C149 67.402 139.598 58 128 58C116.402 58 107 67.402 107 79C107 90.598 116.402 100 128 100ZM305 79C305 90.598 295.598 100 284 100C272.402 100 263 90.598 263 79C263 67.402 272.402 58 284 58C295.598 58 305 67.402 305 79ZM336 100C347.598 100 357 90.598 357 79C357 67.402 347.598 58 336 58C324.402 58 315 67.402 315 79C315 90.598 324.402 100 336 100ZM24 204C35.598 204 45 194.598 45 183C45 171.402 35.598 162 24 162C12.402 162 3 171.402 3 183C3 194.598 12.402 204 24 204ZM180 204C191.598 204 201 194.598 201 183C201 171.402 191.598 162 180 162C168.402 162 159 171.402 159 183C159 194.598 168.402 204 180 204ZM97 183C97 194.598 87.598 204 76 204C64.402 204 55 194.598 55 183C55 171.402 64.402 162 76 162C87.598 162 97 171.402 97 183ZM232 204C243.598 204 253 194.598 253 183C253 171.402 243.598 162 232 162C220.402 162 211 171.402 211 183C211 194.598 220.402 204 232 204ZM149 183C149 194.598 139.598 204 128 204C116.402 204 107 194.598 107 183C107 171.402 116.402 162 128 162C139.598 162 149 171.402 149 183ZM284 204C295.598 204 305 194.598 305 183C305 171.402 295.598 162 284 162C272.402 162 263 171.402 263 183C263 194.598 272.402 204 284 204ZM357 183C357 194.598 347.598 204 336 204C324.402 204 315 194.598 315 183C315 171.402 324.402 162 336 162C347.598 162 357 171.402 357 183ZM45 287C45 298.598 35.598 308 24 308C12.402 308 3 298.598 3 287C3 275.402 12.402 266 24 266C35.598 266 45 275.402 45 287ZM201 287C201 298.598 191.598 308 180 308C168.402 308 159 298.598 159 287C159 275.402 168.402 266 180 266C191.598 266 201 275.402 201 287ZM76 308C87.598 308 97 298.598 97 287C97 275.402 87.598 266 76 266C64.402 266 55 275.402 55 287C55 298.598 64.402 308 76 308ZM253 287C253 298.598 243.598 308 232 308C220.402 308 211 298.598 211 287C211 275.402 220.402 266 232 266C243.598 266 253 275.402 253 287ZM128 308C139.598 308 149 298.598 149 287C149 275.402 139.598 266 128 266C116.402 266 107 275.402 107 287C107 298.598 116.402 308 128 308ZM305 287C305 298.598 295.598 308 284 308C272.402 308 263 298.598 263 287C263 275.402 272.402 266 284 266C295.598 266 305 275.402 305 287ZM336 308C347.598 308 357 298.598 357 287C357 275.402 347.598 266 336 266C324.402 266 315 275.402 315 287C315 298.598 324.402 308 336 308ZM24 152C35.598 152 45 142.598 45 131C45 119.402 35.598 110 24 110C12.402 110 3 119.402 3 131C3 142.598 12.402 152 24 152ZM180 152C191.598 152 201 142.598 201 131C201 119.402 191.598 110 180 110C168.402 110 159 119.402 159 131C159 142.598 168.402 152 180 152ZM97 131C97 142.598 87.598 152 76 152C64.402 152 55 142.598 55 131C55 119.402 64.402 110 76 110C87.598 110 97 119.402 97 131ZM232 152C243.598 152 253 142.598 253 131C253 119.402 243.598 110 232 110C220.402 110 211 119.402 211 131C211 142.598 220.402 152 232 152ZM149 131C149 142.598 139.598 152 128 152C116.402 152 107 142.598 107 131C107 119.402 116.402 110 128 110C139.598 110 149 119.402 149 131ZM284 152C295.598 152 305 142.598 305 131C305 119.402 295.598 110 284 110C272.402 110 263 119.402 263 131C263 142.598 272.402 152 284 152ZM357 131C357 142.598 347.598 152 336 152C324.402 152 315 142.598 315 131C315 119.402 324.402 110 336 110C347.598 110 357 119.402 357 131ZM45 235C45 246.598 35.598 256 24 256C12.402 256 3 246.598 3 235C3 223.402 12.402 214 24 214C35.598 214 45 223.402 45 235ZM201 235C201 246.598 191.598 256 180 256C168.402 256 159 246.598 159 235C159 223.402 168.402 214 180 214C191.598 214 201 223.402 201 235ZM76 256C87.598 256 97 246.598 97 235C97 223.402 87.598 214 76 214C64.402 214 55 223.402 55 235C55 246.598 64.402 256 76 256ZM253 235C253 246.598 243.598 256 232 256C220.402 256 211 246.598 211 235C211 223.402 220.402 214 232 214C243.598 214 253 223.402 253 235ZM128 256C139.598 256 149 246.598 149 235C149 223.402 139.598 214 128 214C116.402 214 107 223.402 107 235C107 246.598 116.402 256 128 256ZM305 235C305 246.598 295.598 256 284 256C272.402 256 263 246.598 263 235C263 223.402 272.402 214 284 214C295.598 214 305 223.402 305 235ZM336 256C347.598 256 357 246.598 357 235C357 223.402 347.598 214 336 214C324.402 214 315 223.402 315 235C315 246.598 324.402 256 336 256ZM24 360C35.598 360 45 350.598 45 339C45 327.402 35.598 318 24 318C12.402 318 3 327.402 3 339C3 350.598 12.402 360 24 360ZM180 360C191.598 360 201 350.598 201 339C201 327.402 191.598 318 180 318C168.402 318 159 327.402 159 339C159 350.598 168.402 360 180 360ZM97 339C97 350.598 87.598 360 76 360C64.402 360 55 350.598 55 339C55 327.402 64.402 318 76 318C87.598 318 97 327.402 97 339ZM232 360C243.598 360 253 350.598 253 339C253 327.402 243.598 318 232 318C220.402 318 211 327.402 211 339C211 350.598 220.402 360 232 360ZM149 339C149 350.598 139.598 360 128 360C116.402 360 107 350.598 107 339C107 327.402 116.402 318 128 318C139.598 318 149 327.402 149 339ZM284 360C295.598 360 305 350.598 305 339C305 327.402 295.598 318 284 318C272.402 318 263 327.402 263 339C263 350.598 272.402 360 284 360ZM357 339C357 350.598 347.598 360 336 360C324.402 360 315 350.598 315 339C315 327.402 324.402 318 336 318C347.598 318 357 327.402 357 339ZM45 391C45 402.598 35.598 412 24 412C12.402 412 3 402.598 3 391C3 379.402 12.402 370 24 370C35.598 370 45 379.402 45 391ZM201 391C201 402.598 191.598 412 180 412C168.402 412 159 402.598 159 391C159 379.402 168.402 370 180 370C191.598 370 201 379.402 201 391ZM76 412C87.598 412 97 402.598 97 391C97 379.402 87.598 370 76 370C64.402 370 55 379.402 55 391C55 402.598 64.402 412 76 412ZM253 391C253 402.598 243.598 412 232 412C220.402 412 211 402.598 211 391C211 379.402 220.402 370 232 370C243.598 370 253 379.402 253 391ZM128 412C139.598 412 149 402.598 149 391C149 379.402 139.598 370 128 370C116.402 370 107 379.402 107 391C107 402.598 116.402 412 128 412ZM305 391C305 402.598 295.598 412 284 412C272.402 412 263 402.598 263 391C263 379.402 272.402 370 284 370C295.598 370 305 379.402 305 391ZM336 412C347.598 412 357 402.598 357 391C357 379.402 347.598 370 336 370C324.402 370 315 379.402 315 391C315 402.598 324.402 412 336 412Z" fill="url(#paint0_linear)"/>
<defs>
<linearGradient id="paint0_linear" x1="180" y1="0" x2="180" y2="423" gradientUnits="userSpaceOnUse">
<stop stop-color="#BE19AE"/>
<stop offset="1" stop-color="#071BCC"/>
</linearGradient>
</defs>
</svg>
